# xmcd
#
# Track frame offsets:
#	150
#	14385
#	29887
#	46212
#	54492
#	71627
#	81625
#	93310
#	104897
#	118630
#	126832
#	135705
#	147927
#	158727
#	171560
#	186842
#	201347
#	213050
#	224405
#	236980
#	248400
#
# Disc length: 3612 seconds
# Revision: 1
# Processed by: cddbd v1.5.2PL0 Copyright (c) Steve Scherf et al.
# Submitted via: dBpowerAMP V12.0
#
DISCID=470e1a15
DTITLE=Various Artist - The Zimmerman Tapes
DYEAR=1993
DGENRE=Bluegrass
TTITLE0=Duck For The Oyster - Illinois Ricketts • Don't Mind The Weather
TTITLE1=Blue Drifters, The - Blue Light
TTITLE2=Stoney Lonesome - Early
TTITLE3=Mary Henderson and Geoff Shannon - Liberty
TTITLE4=Kin Harrington and Don LaPlant - Riverman
TTITLE5=Bob Bovee and Gail Heil - Crow Black Chicken
TTITLE6=Urban Renewal - I'm An Old Cowhand
TTITLE7=Buffalo Gals, The - Big Bend Gal
TTITLE8=Volo Bogtrotters - Goerge Washington
TTITLE9=A# Bluegrass - Brilliancy
TTITLE10=Curtis and Loretta - It's Where You Hang Your Hat
TTITLE11=Cabin Fever - Katy Hill
TTITLE12=Platte Valley Boys - Dog Bite Your Hide
TTITLE13=Ivory Bridge - Last Night I Dreamed of Loving You
TTITLE14=Backroads Junction - Busy Being Blue
TTITLE15=Karen Mueller - Forked Deer • Fishers Hornpipe
TTITLE16=Middle Spunk Creek Boys, The - Father of a Honky Tonky Girl
TTITLE17=Other Side, The - Jesus Gave Me Water
TTITLE18=Laketown Buskers - Belmont Rag
TTITLE19=Bluegills, The - Once In A Very Blue Moon
TTITLE20=Cousin Dad - Elk River Fandango
EXTD=
EXTT0=
EXTT1=
EXTT2=
EXTT3=
EXTT4=
EXTT5=
EXTT6=
EXTT7=
EXTT8=
EXTT9=
EXTT10=
EXTT11=
EXTT12=
EXTT13=
EXTT14=
EXTT15=
EXTT16=
EXTT17=
EXTT18=
EXTT19=
EXTT20=
PLAYORDER=
